Coordinates

Units are S.I. units (second, meters, Newtons, ...)
If the header above contains a line with 'inDegrees', this indicates whether rotational values are in degrees (yes) or radians (no).

inDegrees=no
nColumns=21
nRows=12
DataType=double
version=3
OpenSimVersion=4.6-2026-03-31-d6972f9e6
endheader
time	/jointset/ground_pelvis/pelvis_tilt/value	/jointset/ground_pelvis/pelvis_list/value	/jointset/ground_pelvis/pelvis_rotation/value	/jointset/ground_pelvis/pelvis_tx/value	/jointset/ground_pelvis/pelvis_ty/value	/jointset/ground_pelvis/pelvis_tz/value	/jointset/hip_r/hip_flexion_r/value	/jointset/hip_r/hip_adduction_r/value	/jointset/hip_r/hip_rotation_r/value	/jointset/walker_knee_r/knee_angle_r/value	/jointset/patellofemoral_r/knee_angle_r_beta/value	/jointset/ankle_r/ankle_angle_r/value	/jointset/subtalar_r/subtalar_angle_r/value	/jointset/hip_l/hip_flexion_l/value	/jointset/hip_l/hip_adduction_l/value	/jointset/hip_l/hip_rotation_l/value	/jointset/walker_knee_l/knee_angle_l/value	/jointset/patellofemoral_l/knee_angle_l_beta/value	/jointset/ankle_l/ankle_angle_l/value	/jointset/subtalar_l/subtalar_angle_l/value
139.996	-0.2621828945807577	-0.02521587178459122	-0.03936018113664442	1.131525020000069	0.9467018100000629	-0.3375494900000237	0.6909520930937544	0.02292021700656317	0.07507902478258542	1.529100949573444	1.529100950000097	-8.442157591011103e-07	-0.4850505942354095	0.2127518556094973	-0.004306612495667217	0.02867912373240177	0.5302336393392709	0.5302336400000334	0.2366656850685644	-0.1006383805055627
140	-0.2646391341817031	-0.03368935678933521	-0.0444088885122108	1.132610248063784	0.9506498654528036	-0.3372108803071107	0.6972297057323165	0.03748808115280151	0.07646359595851858	1.488677581874755	1.48867758208475	0.001004047561256766	-0.4883491253711517	0.1884396700585206	-0.01334709549320811	0.02448525287463996	0.496820296418821	0.496820296989987	0.1957113890790515	-0.1030310245463329
140.004	-0.2671115207735772	-0.0421828196349422	-0.04942104968737669	1.133697427205917	0.9545784222543816	-0.3368743884433619	0.7033922622089853	0.0520168255059819	0.07785037659829082	1.44811396296275	1.448113962964363	0.001983001993452989	-0.4914666618293931	0.1642514005243299	-0.02238870003935074	0.02014794979147187	0.4635621873947811	0.4635621878855606	0.1547359155740201	-0.1053203250478044
140.008	-0.2696161391114996	-0.0507107311131292	-0.05436097233300221	1.134788384819317	0.9584683748717806	-0.3365420724417805	0.7093305233223446	0.06646395541134886	0.07924316180860329	1.407276113381441	1.407276113190844	0.002914787783798139	-0.4942275850333895	0.1403108158729618	-0.03142758031517443	0.01552945852527788	0.4306183370524641	0.4306183374798651	0.1137286683903188	-0.1074094830503639
140.012	-0.2721689500470442	-0.05927713767682796	-0.05919458282196127	1.135884703667548	0.9623013567050728	-0.3362158787237415	0.7149463342120399	0.08078062573658977	0.0806487231373309	1.366042101599002	1.366042101239655	0.003787055396007432	-0.4964663403466397	0.1167413051687708	-0.04045051707179064	0.01050326721464219	0.3981548711588444	0.3981548715451996	0.07269942137916623	-0.1092142782688393
140.016	-0.2747856897773802	-0.06787180398312953	-0.06389005338697926	1.136987607713086	0.9660600076203277	-0.3358976019336408	0.7201568766070685	0.09490940168217686	0.08207787204049441	1.324306951514559	1.324306951016437	0.004599448663932876	-0.4980310995511598	0.09366544202379495	-0.04943153144538995	0.004959391313074489	0.3663474405443648	0.3663474409143002	0.03168662503118966	-0.1106681202641614
140.02	-0.2774816354581514	-0.07646770756319414	-0.06841827742840968	1.138097860265373	0.9697281547073564	-0.3355888569084639	0.7248975630337973	0.1087829778982035	0.08354613273205659	1.281986481528598	1.281986480927143	0.005365219224307537	-0.498786460358408	0.07120419140199194	-0.0583298083871342	-0.001190849438782333	0.3353824735735447	0.3353824739508996	-0.009236321868024788	-0.1117257680687673
140.024	-0.2802711140442604	-0.08501999473448699	-0.0727531786378071	1.139215680600934	0.973290915803061	-0.3352910634885101	0.7291233681599858	0.1223239277894284	0.0850740004186087	1.239020033441168	1.239020032775952	0.006111137899888292	-0.4986154654904497	0.04947560307050585	-0.06708902684340992	-0.008010750404773932	0.3054571012716971	0.3054571016768416	-0.04995725490550849	-0.112365560862772
140.028	-0.2831667088077581	-0.09346635837404962	-0.07687183299104434	1.14034068243796	0.9767347400890158	-0.3350054443835854	0.7328086131453433	0.135445430570303	0.08668677787366257	1.195372169708188	1.19537216902143	0.00687576044021778	-0.4974212333460511	0.0285929628941813	-0.07563804419984961	-0.0155349752295617	0.2767777538576894	0.2767777543054998	-0.09032410261052587	-0.1125901235650136
140.032	-0.2861782609454897	-0.1017287029460679	-0.08075439865860358	1.141471832725141	0.9800473957946071	-0.3347330339208029	0.7359454735912926	0.1480528595957031	0.08841399191383333	1.151033489897069	1.151033489232112	0.007706321880110554	-0.4951283919744137	0.008662571202724786	-0.08389280210133425	-0.02376725846102748	0.2495575823341601	0.2495575828327365	-0.1301463943150788	-0.1124255352301073
140.036	-0.2893118008064899	-0.1097158999898523	-0.08438387186909631	1.142607427983609	0.9832179172175517	-0.3344746951173657	0.7385415725255778	0.1600460758182236	0.09028840130327373	1.106020732398087	1.10602073179778	0.008654676847230695	-0.4916844359446301	-0.0102186319481203	-0.0917592585583345	-0.03267915494867246	0.2240129302310633	0.2240129307812542	-0.1691992381290416	-0.1119190248311546
140.04	-0.292568485323418	-0.1173273944193891	-0.08774570118296308	1.14374508787714	0.9862365310642119	-0.3342311436975129	0.7406169624477605	0.1713222422962275	0.09234463238220224	1.060376302542604	1.060376302047435	0.009772773569538477	-0.4870610883094268	-0.0279654499261701	-0.09913709287480107	-0.04220990316988921	0.2003590864654067	0.2003590870611837	-0.2072295354546376	-0.1111354069817642
